<svg version="1.1" viewBox="0 0 512 512" xml:space="preserve" xmlns="http://www.w3.org/2000/svg">
<path d="m512 288.43c0 64.162-52.198 116.36-116.36 116.36h-121.31v-134.94l32.626 32.626c3.3644 3.3644 7.7767 5.0488 12.187 5.0488s8.8223-1.6822 12.187-5.0488c6.731-6.731 6.731-17.645 0-24.373l-63.137-63.137c-6.731-6.731-17.645-6.731-24.373 0l-63.137 63.137c-6.731 6.731-6.731 17.645 0 24.373 3.3644 3.3644 7.7766 5.0488 12.187 5.0488s8.8223-1.6822 12.187-5.0488l34.804-34.804v137.12h-150.4c-49.326 0-89.452-40.129-89.452-89.452 0-46.867 36.231-85.433 82.156-89.156 6.2347-30.624 22.004-58.585 45.357-79.964 27.478-25.157 63.139-39.01 100.42-39.01 52.407 0 100.74 27.786 127.45 72.042 12.837-4.7294 26.497-7.1838 40.26-7.1838 64.164 0 116.36 52.198 116.36 116.36z" style="stroke-width:2.2981"/>















</svg>
